<svg width="22" height="20" viewBox="0 0 22 20" fill="none" xmlns="http://www.w3.org/2000/svg">
<path d="M5.73438 0C7.74897 0 9.53053 1.04973 10.5557 2.59961C11.5808 1.04979 13.3624 0 15.377 0H15.4277C18.5688 0.030202 21.1113 2.54552 21.1113 5.65039C21.1112 7.50037 20.2891 10.1253 18.6855 12.2852C15.6372 16.3911 10.5778 19.9843 10.5557 20C10.5557 20 5.48081 16.4001 2.42578 12.2852C0.822262 10.1253 0.000115622 7.50037 0 5.65039C0 2.54545 2.54238 0.0300873 5.68359 0H5.73438ZM5.69434 1.40527C4.54743 1.41527 3.47584 1.86016 2.66895 2.66016C1.86729 3.46013 1.4209 4.52051 1.4209 5.65039C1.42102 7.1004 2.08555 9.45528 3.57227 11.4551C5.73412 14.3701 9.02815 17.0652 10.5557 18.2402C12.0832 17.0653 15.3762 14.3749 17.5381 11.46C19.0249 9.45514 19.6899 7.10042 19.7002 5.65039C19.7002 4.52549 19.2589 3.46013 18.4521 2.66016C17.6454 1.86026 16.5694 1.41538 15.4277 1.40527H15.3818C14.6561 1.40527 13.9353 1.59031 13.2959 1.94531C12.6768 2.29031 12.1437 2.78016 11.7529 3.37012C11.489 3.765 11.0426 4.00488 10.5605 4.00488C10.0785 4.00487 9.63206 3.76502 9.36816 3.37012C8.98249 2.78014 8.44429 2.29031 7.8252 1.94531C7.18577 1.59031 6.46495 1.40527 5.73926 1.40527H5.69434Z" fill="#3B3B3B"/>
</svg>
