<svg width="27" height="18" viewBox="0 0 27 18" fill="none" xmlns="http://www.w3.org/2000/svg">
<path d="M10.0034 0.922071C10.4481 1.3573 10.4481 2.07979 10.0121 2.52373L4.71921 7.82487H24.8879C25.507 7.82487 26.0128 8.32974 26.0128 8.95648C26.0128 9.58321 25.507 10.0881 24.8879 10.0881H4.71921L10.0208 15.3892C10.4568 15.8332 10.4481 16.5469 10.0121 16.9909C9.56738 17.4261 8.86108 17.4261 8.41637 16.9822L1.23132 9.7573C1.1354 9.65285 1.05693 9.53969 0.995889 9.40041C0.934851 9.26114 0.908691 9.11316 0.908691 8.96518C0.908691 8.66922 1.02205 8.39067 1.23132 8.17306L8.41637 0.948185C8.84364 0.495543 9.55866 0.486838 10.0034 0.922071V0.922071Z" fill="#3B3B3B"/>
</svg>
