<svg width="35" height="36" viewBox="0 0 35 36" fill="none" xmlns="http://www.w3.org/2000/svg">
<circle cx="17.5" cy="18" r="17.5" fill="#F8F8F8"/>
<path d="M23.9423 24.3336H11.8402C11.6097 24.3306 11.382 24.282 11.1703 24.1908C10.9586 24.0995 10.7671 23.9673 10.6067 23.8018C10.4463 23.6363 10.3201 23.4408 10.2355 23.2264C10.1508 23.012 10.1094 22.783 10.1136 22.5525V13.6625C10.1105 13.4327 10.1526 13.2045 10.2377 12.991C10.3229 12.7775 10.4492 12.5829 10.6095 12.4182C10.7699 12.2535 10.961 12.122 11.1722 12.0312C11.3833 11.9405 11.6104 11.8922 11.8402 11.8892H23.9423C24.1721 11.8922 24.3992 11.9405 24.6103 12.0312C24.8215 12.122 25.0126 12.2535 25.1729 12.4182C25.3333 12.5829 25.4596 12.7775 25.5447 12.991C25.6298 13.2045 25.6722 13.4327 25.6691 13.6625V22.5525C25.6732 22.783 25.6317 23.012 25.547 23.2264C25.4624 23.4408 25.3362 23.6363 25.1758 23.8018C25.0153 23.9673 24.8239 24.0995 24.6122 24.1908C24.4005 24.282 24.1728 24.3306 23.9423 24.3336V24.3336Z" stroke="#44475C" stroke-width="1.8" stroke-miterlimit="10"/>
<path d="M13.2246 24.3332L19.1278 18.4299C19.2723 18.2853 19.4439 18.1705 19.6327 18.0922C19.8216 18.0139 20.024 17.9736 20.2284 17.9736C20.4328 17.9736 20.6352 18.0139 20.8241 18.0922C21.0129 18.1705 21.1845 18.2853 21.329 18.4299L25.5601 22.6687" stroke="#44475C" stroke-width="1.8" stroke-linejoin="round"/>
<path d="M14.7802 18.1111C15.6393 18.1111 16.3357 17.4147 16.3357 16.5556C16.3357 15.6964 15.6393 15 14.7802 15C13.9211 15 13.2246 15.6964 13.2246 16.5556C13.2246 17.4147 13.9211 18.1111 14.7802 18.1111Z" fill="#44475C"/>
</svg>
