<svg width="14" height="14" viewBox="0 0 14 14" fill="none" xmlns="http://www.w3.org/2000/svg">
<path d="M5.85935 8.08178C6.32201 8.56307 6.81974 9.00938 7.34847 9.41702C7.5818 9.59599 7.86461 9.69902 8.15841 9.71216C8.4522 9.72529 8.74295 9.64789 8.99133 9.49044L9.34511 9.27016C9.6006 9.09552 9.90484 9.00599 10.2142 9.01438C10.5236 9.02278 10.8224 9.12863 11.068 9.31686L12.7241 10.6521C12.8041 10.7149 12.87 10.7939 12.9173 10.884C12.9646 10.974 12.9923 11.0731 12.9986 11.1746C13.0049 11.2761 12.9896 11.3778 12.9538 11.473C12.918 11.5682 12.8626 11.6548 12.7909 11.727V11.727C12.1531 12.3664 11.3313 12.7905 10.4405 12.9401C9.54975 13.0897 8.63456 12.9574 7.82273 12.5615C6.44544 11.8836 5.19064 10.9811 4.10987 9.89104C3.01935 8.81326 2.11657 7.5609 1.43878 6.18572C1.04344 5.37329 0.910709 4.45802 1.05908 3.5668C1.20745 2.67558 1.62956 1.85261 2.26681 1.212V1.212C2.3386 1.14 2.42471 1.08396 2.51967 1.04762C2.61464 1.01128 2.71633 0.995451 2.81785 1.00113C2.91938 1.0068 3.01854 1.03385 3.10886 1.08054C3.19918 1.12724 3.27852 1.19251 3.34183 1.27206L4.67738 2.93442C4.86205 3.16827 4.97024 3.45338 4.98697 3.75086C5.0037 4.04834 4.92825 4.34376 4.77096 4.59683L4.51044 5.00407C4.35384 5.25235 4.27646 5.54233 4.28839 5.83561C4.30031 6.1289 4.40104 6.41162 4.57728 6.64638C4.97645 7.17419 5.4115 7.6739 5.8794 8.14188L5.85935 8.08178Z" stroke="#A9A9B0" stroke-linejoin="round"/>
</svg>
