<svg width="14" height="14" viewBox="0 0 14 14" fill="none" xmlns="http://www.w3.org/2000/svg">
<circle cx="7.00013" cy="7.00001" r="1.63636" stroke="#A9A9B0" stroke-linecap="round" stroke-linejoin="round"/>
<path fill-rule="evenodd" clip-rule="evenodd" d="M11.0364 8.63636C10.8878 8.97296 10.9591 9.36608 11.2164 9.62909L11.2491 9.66182C11.4539 9.86644 11.569 10.1441 11.569 10.4336C11.569 10.7232 11.4539 11.0008 11.2491 11.2055C11.0445 11.4103 10.7668 11.5254 10.4773 11.5254C10.1877 11.5254 9.91007 11.4103 9.70545 11.2055L9.67273 11.1727C9.40972 10.9155 9.01659 10.8442 8.68 10.9927C8.35029 11.134 8.13598 11.4576 8.13455 11.8164V11.9091C8.13455 12.5116 7.64613 13 7.04364 13C6.44114 13 5.95273 12.5116 5.95273 11.9091V11.86C5.94409 11.4905 5.71048 11.1639 5.36364 11.0364C5.02704 10.8878 4.63392 10.9591 4.37091 11.2164L4.33818 11.2491C4.13356 11.4539 3.8559 11.569 3.56636 11.569C3.27683 11.569 2.99917 11.4539 2.79455 11.2491C2.5897 11.0445 2.4746 10.7668 2.4746 10.4773C2.4746 10.1877 2.5897 9.91007 2.79455 9.70545L2.82727 9.67273C3.08455 9.40972 3.15583 9.01659 3.00727 8.68C2.86596 8.35029 2.54235 8.13598 2.18364 8.13455H2.09091C1.48842 8.13455 1 7.64613 1 7.04364C1 6.44114 1.48842 5.95273 2.09091 5.95273H2.14C2.50945 5.94409 2.83607 5.71048 2.96364 5.36364C3.11219 5.02704 3.04091 4.63392 2.78364 4.37091L2.75091 4.33818C2.54606 4.13356 2.43096 3.8559 2.43096 3.56636C2.43096 3.27683 2.54606 2.99917 2.75091 2.79455C2.95553 2.5897 3.23319 2.4746 3.52273 2.4746C3.81226 2.4746 4.08993 2.5897 4.29455 2.79455L4.32727 2.82727C4.59028 3.08455 4.98341 3.15583 5.32 3.00727H5.36364C5.69335 2.86596 5.90766 2.54235 5.90909 2.18364V2.09091C5.90909 1.48842 6.39751 1 7 1C7.60249 1 8.09091 1.48842 8.09091 2.09091V2.14C8.09234 2.49871 8.30665 2.82233 8.63636 2.96364C8.97296 3.11219 9.36608 3.04091 9.62909 2.78364L9.66182 2.75091C9.86644 2.54606 10.1441 2.43096 10.4336 2.43096C10.7232 2.43096 11.0008 2.54606 11.2055 2.75091C11.4103 2.95553 11.5254 3.23319 11.5254 3.52273C11.5254 3.81226 11.4103 4.08993 11.2055 4.29455L11.1727 4.32727C10.9155 4.59028 10.8442 4.98341 10.9927 5.32V5.36364C11.134 5.69335 11.4576 5.90766 11.8164 5.90909H11.9091C12.5116 5.90909 13 6.39751 13 7C13 7.60249 12.5116 8.09091 11.9091 8.09091H11.86C11.5013 8.09234 11.1777 8.30665 11.0364 8.63636Z" stroke="#A9A9B0" stroke-linecap="round" stroke-linejoin="round"/>
</svg>
