<svg width="12" height="14" viewBox="0 0 12 14" fill="none" xmlns="http://www.w3.org/2000/svg">
<path d="M8.2 2.19995H9.4C9.71826 2.19995 10.0234 2.32638 10.2484 2.55142C10.4735 2.77647 10.6 3.08169 10.6 3.39995V11.8C10.6 12.1182 10.4735 12.4234 10.2484 12.6485C10.0234 12.8735 9.71826 13 9.4 13H2.2C1.88174 13 1.57646 12.8735 1.35142 12.6485C1.12637 12.4234 1 12.1182 1 11.8V3.39995C1 3.08169 1.12637 2.77647 1.35142 2.55142C1.57646 2.32638 1.88174 2.19995 2.2 2.19995H3.4" stroke="#A9A9B0" stroke-miterlimit="10"/>
<path d="M4.5999 3.4C4.28164 3.4 3.97636 3.27357 3.75132 3.04853C3.52627 2.82349 3.3999 2.51826 3.3999 2.2C3.3999 1.88174 3.52627 1.57651 3.75132 1.35147C3.97636 1.12643 4.28164 1 4.5999 1H6.9999C7.31816 1 7.6233 1.12643 7.84834 1.35147C8.07338 1.57651 8.1999 1.88174 8.1999 2.2C8.1999 2.51826 8.07338 2.82349 7.84834 3.04853C7.6233 3.27357 7.31816 3.4 6.9999 3.4H4.5999Z" stroke="#A9A9B0" stroke-miterlimit="10"/>
</svg>
